<?xml version="1.0" encoding="utf-8"?>
<!-- Generator: Adobe Illustrator 25.2.3, SVG Export Plug-In . SVG Version: 6.00 Build 0)  -->
<svg version="1.1" id="Calque_1" xmlns="http://www.w3.org/2000/svg" xmlns:xlink="http://www.w3.org/1999/xlink" x="0px" y="0px"
	 viewBox="0 0 1952.6 1017.4" style="enable-background:new 0 0 1952.6 1017.4;" xml:space="preserve">
<style type="text/css">
	.st0{fill:#05C3DD;}
</style>
<g>
	<path class="st0" d="M1354.2,387.6l0.2,0.2c29.9,26.6,60.3,53.6,96.6,75.6l100.7-176.3c-32.2-10.4-68.8-16.5-112.1-16.5
		c-27.9-0.2-55.7,2.7-82.9,8.6l-40.3,70.7c10,9.9,19.4,19.8,28.1,29.1L1354.2,387.6z"/>
	<path class="st0" d="M1370.4,255.3l-7.2,12.6c25.2-4.7,50.8-7,76.5-6.9c34.4,0,65.5,3.6,95.1,11c7.5,1.9,14.8,4,22,6.3l3.9-6.8
		c-33.2-14-72.7-23.1-121-23.1C1416.4,248.2,1393.1,250.5,1370.4,255.3z"/>
	<path class="st0" d="M1264.6,303.6c1.6-0.9,3.1-1.7,4.5-2.5l-0.6-2.1c-1.7,1.2-3.5,2.4-5.2,3.6L1264.6,303.6z"/>
	<path class="st0" d="M1446.1,472.2c-9.1-5.5-18.2-11.6-27.6-18.3c8.5,7.5,17.1,14.6,25.9,21.4L1446.1,472.2z"/>
	<path class="st0" d="M1809.1,484.1c-1.5-1.1-3-2.3-4.5-3.5l-1.7,0.9c-23.7,12.7-49,22.4-75.1,28.9c-5.6,1.4-11.3,2.7-17.1,3.8
		l6.1,10.7h-104.9c-13.1,0-26,2.9-37.8,8.6c19.4,3.3,39,4.9,58.7,4.8C1700.1,538.4,1756.2,521.1,1809.1,484.1z"/>
	<path class="st0" d="M1068.7,237.8c34.4,0,65.5,4.3,95.1,13.1c26.6,7.9,51.9,19.6,75.2,34.7c5.1,3.2,10.1,6.7,15.2,10.3
		c3.8-2.7,7.5-5.3,11.3-7.8l-61.9-224.5c-12.7-46.1-60.4-73.2-106.5-60.5c-29.4,8.1-52.4,31.1-60.5,60.5l-50.7,183.9
		C1011.7,241,1039,237.8,1068.7,237.8z"/>
	<path class="st0" d="M1814.7,474.9c1.1,0.9,2.3,1.7,3.4,2.6l3.4-2.6c-1.2-0.7-2.3-1.4-3.4-2
		C1817.1,473.6,1815.9,474.3,1814.7,474.9z"/>
	<path class="st0" d="M1439.6,237.8c34.4,0,65.5,4.3,95.2,13.1c10.6,3.2,21,6.9,31.1,11.3l0.4-0.8l0.7,1.3
		c14.9,6.5,29.2,14.1,42.8,22.9c40.5,25.9,74.3,60.4,105.5,93.5c3.3,2.9,6.6,5.9,9.9,8.8c28.6,25.5,58.2,51.8,92.8,73.3
		c15.2-9.6,29.8-20,43.8-31.3L1641.6,43.7c-23.7-41.5-76.6-56-118.1-32.3c-13.5,7.7-24.6,18.8-32.3,32.3l-113.8,199.3
		C1397.9,239.4,1418.7,237.7,1439.6,237.8z"/>
	<path class="st0" d="M1917.6,527.3l-9.7-17c-25.9-6.5-50.9-16.1-74.4-28.7l-1.7-0.9c-1.5,1.2-3,2.3-4.5,3.5
		C1856,504.2,1885.7,518.5,1917.6,527.3z"/>
	<path class="st0" d="M1830.1,468.3c5.6-4.6,11.3-9.4,17.1-14.6c-6.6,4.7-13,9.1-19.4,13.2L1830.1,468.3z"/>
	<path class="st0" d="M1581.2,287.4c9.6,4,19.1,8.5,28.6,13.6c6.3,3.4,12.6,7,18.9,10.9c-16.4-12.8-33.9-23.9-52.5-33.2
		L1581.2,287.4z"/>
	<path class="st0" d="M1901,498.3l-29.9-52.3c-10,9.6-20.2,19-31,27.9C1859.6,484,1880,492.2,1901,498.3z"/>
	<path class="st0" d="M1808.6,467c-6.4-4.1-12.9-8.5-19.4-13.2c5.8,5.2,11.5,10,17.1,14.6L1808.6,467z"/>
	<path class="st0" d="M1163.8,379.1c20.7-21.9,44.9-47.1,71.5-68.7c-49.5-26.7-104-39.7-166.6-39.7c-34.6,0-64.9,3.9-92.2,10.8
		l-1.2,4.3l-1-3.8c-71.7,18.6-121.7,57.8-169.7,100.1c-4.6,4.9-9.3,9.8-14,14.9c-24.5,26.2-49.9,53.2-78.4,76.9
		c29.1,15.3,60.4,26.1,92.7,31.9l25.7-93.2l27.3,99c5.8,0.2,11.7,0.4,17.7,0.4c115.2,0,183.6-43.4,242.7-93l1.8-6.4l1.1,4
		c11.1-9.4,21.9-19,32.7-28.6C1157.2,384.9,1160.5,382,1163.8,379.1z"/>
	<path class="st0" d="M1717.7,397c-4.8-5.1-9.4-10-14-14.9c-34.6-30.5-70.2-59.3-114.2-80l116,203.3c31.6-5.9,62.1-16.5,90.6-31.5
		C1767.6,450.2,1742.3,423.2,1717.7,397z"/>
	<path class="st0" d="M699.7,467l2.3,1.3c5.6-4.6,11.3-9.4,17.1-14.6C712.6,458.5,706.1,462.8,699.7,467z"/>
	<path class="st0" d="M676.5,480.7l-1.7,0.9c-23.7,12.7-49,22.4-75.1,28.9c-21.5,5.3-43.5,8.7-65.6,10l9.1,15.9
		c50.8-5.5,95.3-22.5,137.8-52.2C679.5,483,678,481.8,676.5,480.7z"/>
	<path class="st0" d="M339.1,524.9H235.8l39.9-69.9c-20-18.6-38.7-38.4-57-58c-5-5.3-9.5-10.1-14-14.9c-20.8-18.3-39.6-34.1-59.5-48
		L11.4,568.6c-23.7,41.5-9.3,94.5,32.3,118.2c13.1,7.5,27.9,11.4,42.9,11.4h252.5c47.8-0.5,86.2-39.7,85.7-87.6
		C424.3,563.5,386.2,525.5,339.1,524.9z"/>
	<path class="st0" d="M177.5,277.6l-5,8.7c14.3-5.8,29-10.6,44-14.3c29.6-7.4,60.7-11,95.1-11c23.9-0.1,47.9,1.9,71.4,5.9l3.2-5.6
		l4,7c5.5,1.1,11,2.3,16.4,3.7c26.1,6.5,51.4,16.2,75.1,28.9c6.3,3.4,12.6,7,18.9,10.9c-44.6-34.4-102.8-63.5-189.1-63.5
		C261.8,248.4,218.2,257.8,177.5,277.6z"/>
	<path class="st0" d="M780.4,535.9c-26.6-8-51.9-19.6-75.2-34.7c-5.1-3.2-10.1-6.7-15.2-10.3c-5.1,3.6-10.1,7.1-15.2,10.3
		c-23.3,15-48.6,26.7-75.2,34.7c-16.6,4.9-33.7,8.5-50.9,10.5l61.7,108.1c23.7,41.5,76.6,56,118.2,32.3
		c19.9-11.4,34.5-30.1,40.6-52.2l26.1-94.7C790.4,538.7,785.4,537.3,780.4,535.9z"/>
	<path class="st0" d="M216.5,379.1c3.3,2.9,6.6,5.9,9.9,8.8c19.1,17,38.3,34.1,59.2,50L377.9,276c-21.9-3.6-44.1-5.4-66.3-5.4
		c-54.5,0-103,9.9-147.2,30.1l-10,17.5C177.3,337.9,198.2,359.7,216.5,379.1z"/>
	<path class="st0" d="M1925,540.3c-5.6-1.3-11.1-2.8-16.5-4.4c-26.6-7.9-51.9-19.6-75.2-34.7c-5.1-3.2-10.1-6.7-15.2-10.3
		c-5.1,3.6-10.1,7.1-15.2,10.3c-23.3,15-48.6,26.7-75.2,34.7c-29.6,8.8-60.7,13.1-95.1,13.1c-24.2,0.1-48.4-2.3-72.2-7.3
		c-38.6,28.3-46.9,82.5-18.5,121.1c16.3,22.2,42.2,35.3,69.8,35.3h254.1c47.8,0,86.6-38.8,86.6-86.6c0-15.1-3.9-29.9-11.4-42.9
		L1925,540.3z"/>
	<path class="st0" d="M1346.8,397c-5-5.3-9.5-10.1-14-14.9c-8-7.1-15.7-13.7-23.4-20.1l-15.9,27.9l-14.2-51.6
		c-8.2-6-16.5-11.6-25.2-17c-27.3,17-51.3,36.6-78.7,60.8c-4.5,4.8-9,9.6-14,14.9c-11.6,12.4-23.3,24.9-35.5,37.1l55.3,200.5
		c10.4,37.6,44.5,63.6,83.5,63.6h2c31.1,0,59.8-16.7,75.2-43.7l96.9-169.8C1404.7,458.7,1375.4,427.4,1346.8,397z"/>
	<path class="st0" d="M1045.9,501.2c-23.3,15-48.6,26.7-75.1,34.7c-29.6,8.8-60.7,13.1-95.2,13.1c-2.5,0-4.9,0-7.4-0.1l23.6,85.7
		c12.7,46.1,60.4,73.2,106.5,60.5c29.4-8.1,52.4-31.1,60.5-60.5l50.9-184.5C1090,468.8,1069.1,486.3,1045.9,501.2z"/>
	<path class="st0" d="M1089.9,453.8c-14.1,10.2-28.8,19.5-44.1,27.7c-23.7,12.7-49,22.4-75.1,28.9c-29.6,7.4-60.7,11-95.1,11
		c-5.1,0-10.1-0.1-15.1-0.2l4.7,17.1c3.4,0.1,6.9,0.2,10.3,0.2C969,538.4,1031.8,505.6,1089.9,453.8z"/>
	<path class="st0" d="M898.5,300.9c23.1-12.4,47.7-21.9,73.1-28.4l-2.5-9.1c-35.7,11.7-64.7,29.2-89.6,48.4
		C885.9,307.9,892.2,304.3,898.5,300.9z"/>
	<path class="st0" d="M1243.7,303.6l1.3-1c-52.9-37-109-54.3-176.4-54.3c-32.4,0-60.9,4.1-86.1,11l-3.1,11.2
		c27.8-6.4,57.1-9.5,89.2-9.5c34.4,0,65.5,3.6,95.1,11c26.1,6.5,51.4,16.2,75.1,28.9C1240.3,301.8,1242,302.6,1243.7,303.6z"/>
	<path class="st0" d="M798.3,529.6l4-14.5c-7.3-1.3-14.6-2.9-21.7-4.7c-26.1-6.5-51.4-16.2-75.1-28.9l-1.7-0.9
		c-1.5,1.2-3,2.3-4.5,3.5C730.5,506.1,763,521,798.3,529.6z"/>
	<path class="st0" d="M680.5,467c-6.4-4.1-12.9-8.5-19.4-13.2c5.8,5.2,11.5,10,17.1,14.6L680.5,467z"/>
	<path class="st0" d="M589.7,397c-5-5.3-9.4-10.1-14-14.9c-50.1-44.1-102.3-84.9-179-102.4l132.1,231.5
		c51.4-2.9,97.2-15.2,139.3-37.4C639.6,450.2,614.2,423.2,589.7,397z"/>
	<path class="st0" d="M686.7,474.9l3.4,2.6l3.4-2.6c-1.2-0.7-2.3-1.4-3.4-2C689,473.6,687.8,474.3,686.7,474.9z"/>
	<path class="st0" d="M216.4,250.9c29.6-8.8,60.7-13.1,95.2-13.1s65.5,4.3,95.2,13.1c26.6,8,51.9,19.6,75.1,34.7
		c40.5,25.9,74.3,60.4,105.5,93.5l9.9,8.8c28.6,25.5,58.2,51.8,92.8,73.3c34.6-21.6,64.2-47.9,92.8-73.3l0.5-0.4
		c3.1-2.8,6.3-5.6,9.4-8.4c31.2-33.1,65.1-67.6,105.5-93.5c21.2-13.7,44-24.5,67.9-32.4L914.1,63.6C901.3,17.5,853.6-9.6,807.5,3.1
		c-29.4,8.1-52.4,31.1-60.5,60.5l-89.3,324L461.5,43.7c-23.7-41.5-76.6-56-118.1-32.3c-13.5,7.7-24.6,18.8-32.3,32.3L186.7,261.6
		C196.4,257.5,206.3,253.9,216.4,250.9z"/>
	<path class="st0" d="M1.8,953.7V780.8h70.1c40.3,0,60.4,29,60.4,87.1c0,24.4-4.6,44.5-13.9,60.2c-4.6,7.8-11.1,14.3-19,18.8
		c-7.9,4.5-17.1,6.7-27.5,6.7H1.8z M29.2,928.4h41.1c8,0,14.6-2.7,19.8-8c9.9-9.9,14.9-27.5,14.9-52.7c0-29.9-5.4-48.8-16.1-56.6
		c-4.9-3.5-11.1-5.2-18.7-5.2H29.2V928.4z"/>
	<path class="st0" d="M177.2,785.1c3.6,0,5.4,2,5.4,6.1v18c0,3.6-1.8,5.4-5.4,5.4h-20.1c-1.5,0-3-0.5-4-1.5c-1.1-1-1.7-2.4-1.6-3.9
		v-18c0-4.1,1.9-6.1,5.7-6.1H177.2z M153.1,953.7V828.3h27.4v125.4H153.1z"/>
	<path class="st0" d="M205,941.7c-2-4.2-3-8.7-3-13.4c-0.1-4.7,1.2-9.3,3.7-13.3c2.4-4,6.2-6.8,10.7-7.9c-4.9-3.1-8.4-7.9-10.6-14.3
		c-2.2-6.6-3.4-13.5-3.3-20.4c0-14.8,3.7-25.9,11-33.4s17.8-11.2,31.5-11.2h75.3v17.2l-15.8,4.2l1.3,2.6c0.7,1.4,1.2,2.4,1.4,3
		s0.6,1.6,1.1,3.2c0.5,1.6,0.9,3,1.2,4.5c0.5,4,0.7,7.9,0.7,11.9c0,3.8-0.3,7.7-1,11.4c-0.7,4-2,7.9-3.7,11.6
		c-1.7,4-4.2,7.6-7.2,10.6c-6.7,6.9-16.6,10.4-29.5,10.4H237c-6.5,0-9.7,2-9.7,6.1c0,4.6,3.2,6.8,9.7,6.8h42.7
		c10.9,0,19.4,3.1,25.5,9.2c6.1,6.1,9.2,14.9,9.2,26.2V981c0,17.9-7.4,29.4-22.2,34.2c-5.1,1.5-10.5,2.2-15.8,2.1H241
		c-11.5,0-20.8-3.1-27.9-9.2c-7.1-6.1-10.7-15.2-10.6-27.1v-17.5l10.4-12.7C209.4,948.6,206.7,945.5,205,941.7z M229.9,872.5
		c0,15.1,5.9,22.7,17.7,22.7h16.8c6.9,0,11.7-2.1,14.4-6.3c2.7-4.2,4-9.8,4-16.8c0-7-1.4-12.3-4.1-15.8c-2.8-3.5-7.6-5.3-14.5-5.3
		h-15.9c-7.4,0-12.5,2.3-15.1,6.8C231,861.8,229.9,866.6,229.9,872.5z M240,954.9c-3.4,0-6.8-0.4-10.1-1.2v24.8
		c0,6.5,1.5,10.7,4.6,12.6c3.1,2,7.1,3,12.1,3h25.5c5.8,0,9.8-1.3,11.8-3.9c2-2.6,3.1-6.3,3-11.2v-10.9c0-5.8-1.7-9.7-5.2-11.6
		c-2.7-1.2-5.6-1.8-8.5-1.6L240,954.9z"/>
	<path class="st0" d="M360,785.1c3.6,0,5.4,2,5.4,6.1v18c0,3.6-1.8,5.4-5.4,5.4h-20.1c-1.5,0-3-0.5-4-1.5c-1.1-1-1.7-2.4-1.6-3.9
		v-18c0-4,1.9-6.1,5.7-6.1H360z M335.9,953.7V828.3h27.4v125.4H335.9z"/>
	<path class="st0" d="M428,793.1v34.9h31.2v22.5H428v55c0,8.8,1,15,3,18.5c1.9,3.5,5.1,6.1,8.9,7.2c10.7,3.3,16.6,5,17.7,5v17.5h-26
		c-20.6,0-30.9-15-30.9-44.9v-58.3h-21.2V834l21.2-5.9l5.2-34.9H428z"/>
	<path class="st0" d="M477.1,833.7c15.1-5.2,34.9-7.8,59.3-7.8c27.5,0,41.3,12.9,41.3,38.7v89h-21.2l-6.1-14.4c-0.5,0.9-2.8,2.6-7,5
		c-5.3,2.9-10.9,5.3-16.6,7.2c-6.1,2.3-12.6,3.5-19.1,3.7c-10.7,0-19.1-3.1-25.3-9.4c-6.1-6.1-9.4-14.5-9.2-23.1v-12.7
		c0-9.8,2.9-17.8,8.7-24c5.8-6.2,15.2-9.3,28-9.3h40.5c0.2-3.6,0.2-6.3,0.2-8.2c0-1.8-0.1-2.7-0.2-2.7c0-6.5-1.5-10.9-4.4-13.2
		c-2.9-2.4-7.4-3.5-13.3-3.5c-11.7,0-30.1,0.9-55.5,2.6L477.1,833.7z M500.5,919.2c0,4.9,1.1,8.2,3.3,9.9c2.2,1.7,5.4,2.6,9.7,2.6
		c5.3-0.2,10.6-1,15.7-2.6c5.2-1.4,10.3-3.1,15.2-5.2l5.9-2.6v-26.9l-38.2,2.8c-7.7,0.8-11.6,5.4-11.6,13.7L500.5,919.2z"/>
	<path class="st0" d="M599.6,909V768.8H627v136.9c0,8.8,0.9,15,2.8,18.4c1.9,3.5,5.1,6,9,7.1c10.7,3.3,16.6,5,17.7,5v17.5h-25
		c-10.4,0-18.3-3.5-23.7-10.4S599.6,925,599.6,909z"/>
	<path class="st0" d="M728.3,953.7l60.2-172.8h30.2l57.8,172.8h-30l-13.2-41.8h-61.2l-13.5,41.8H728.3z M780,886.9h46.3l-22.7-68.7
		L780,886.9z"/>
	<path class="st0" d="M893.8,936.3c-2.4-4.6-4.2-10.8-5.7-18.4c-1.4-7.6-2.1-17.2-2.1-28.8c-0.1-10.2,0.8-20.4,3-30.3
		c2-8.7,4.9-15.2,8.9-19.7c3.4-4.1,7.9-7.3,12.9-9.3c5.4-1.9,11-2.7,16.6-2.6c21.1,0,39.9,2.4,56.4,7.1v17.5
		c-17.6-0.9-30.5-1.4-38.7-1.4c-8.2,0-13,0.1-14.5,0.2c-1.7,0.2-3.4,0.5-5.1,1c-1.7,0.4-3.2,1.3-4.4,2.5c-1.2,1.4-2.3,2.9-3.2,4.6
		c-1.2,2.3-2.1,4.8-2.6,7.4c-1.3,6.8-1.9,15.5-1.9,26.2c0,10.7,0.8,18.9,2.4,24.7c1.6,5.7,3.9,9.6,7,11.6c3.1,2,7.8,3,14,3
		c12.6,0,26.3-0.6,41.1-1.7l7.5-0.4v17.9c-8.1,3.4-16.7,5.6-25.5,6.4c-2.8,0.1-5,0.3-6.4,0.5c-1.4,0.2-3.7,0.3-6.7,0.4
		c-3.1,0.1-5.2,0.2-6.3,0.2c-1.1,0.1-3.3,0.1-6.7,0.1h-9.6c-3.5-0.1-6.9-0.6-10.3-1.5c-4.1-1.1-7.9-3.1-11.2-5.8
		C899,944.5,895.9,940.7,893.8,936.3z"/>
	<path class="st0" d="M1006.2,936.3c-2.4-4.6-4.2-10.8-5.7-18.4c-1.4-7.6-2.1-17.2-2.1-28.8c-0.1-10.2,0.8-20.4,2.9-30.3
		c2-8.7,4.9-15.2,8.9-19.7c3.4-4.1,7.9-7.3,12.9-9.3c5.4-1.9,11-2.7,16.6-2.6c21.1,0,39.9,2.4,56.4,7.1v17.5
		c-17.6-0.9-30.5-1.4-38.7-1.4c-8.2,0-13,0.1-14.5,0.2c-1.7,0.2-3.4,0.5-5.1,1c-1.7,0.4-3.2,1.3-4.4,2.5c-1.2,1.4-2.3,3-3.2,4.6
		c-1.2,2.3-2.1,4.8-2.6,7.4c-1.3,6.8-1.9,15.5-1.9,26.2c0,10.7,0.8,18.9,2.4,24.7c1.6,5.7,3.9,9.6,7,11.6c3.1,2,7.8,3,14,3
		c12.6,0,26.3-0.6,41.1-1.7l7.6-0.5v17.9c-8.1,3.4-16.7,5.6-25.5,6.4c-2.8,0.1-5,0.3-6.4,0.5s-3.7,0.3-6.7,0.4
		c-3.1,0.1-5.2,0.2-6.3,0.2c-1.1,0.1-3.3,0.1-6.7,0.1h-9.6c-3.5-0.1-6.9-0.6-10.3-1.5c-4.1-1.1-7.9-3.1-11.2-5.8
		C1011.4,944.5,1008.3,940.7,1006.2,936.3z"/>
	<path class="st0" d="M1120,842.7c4.3-6,10.6-10.4,17.7-12.5c7.8-2,15.9-2.9,24-2.8c8.9,0,15.4,0.2,19.6,0.5c4.3,0.3,8.5,1,12.6,2
		c3.7,0.8,7.1,2.3,10.1,4.6c2.7,2.3,5,5,6.8,8c3.9,6,5.9,16,5.9,30c0,20.3-11.3,30.4-34,30.5h-44.6c0,12.3,2,20.2,6.1,23.9
		c2.1,2,4.8,3.4,7.7,4c2.9,0.6,11.3,0.9,25.1,0.9c12.5,0.1,25-0.8,37.3-2.6v19.1c-12.9,4.4-33.7,6.6-62.3,6.6
		c-15.7,0-26.6-4.8-32.5-14.3c-5.9-9.5-8.9-26.1-8.9-49.8C1110.8,867.1,1113.9,851,1120,842.7z M1189.4,871.5
		c0-9.4-1.3-15.4-3.9-17.9c-2.6-2.5-8.8-3.8-18.5-3.8c-12.4,0-19.9,1.4-22.4,4.2c-3.2,3.5-5.2,7.9-5.7,12.6c-0.5,4.8-0.7,9.8-0.7,15
		h39.2C1185.4,881.7,1189.4,878.3,1189.4,871.5L1189.4,871.5z"/>
	<path class="st0" d="M1236.9,909V768.8h27.4v136.9c0,8.8,0.9,15,2.8,18.4c1.9,3.5,5.1,6,9,7.1c10.7,3.3,16.6,5,17.7,5v17.5h-25
		c-10.4,0-18.3-3.5-23.7-10.4S1236.9,925,1236.9,909z"/>
	<path class="st0" d="M1307.2,842.7c4.3-6,10.6-10.4,17.7-12.5c7.8-2,15.9-2.9,24-2.8c8.9,0,15.4,0.2,19.6,0.5c4.3,0.3,8.5,1,12.6,2
		c3.7,0.8,7.1,2.3,10.1,4.6c2.7,2.3,5,5,6.9,8c3.9,6,5.9,16,5.9,30c0,20.3-11.3,30.4-34,30.5h-44.6c0,12.3,2,20.2,6.1,23.9
		c2.1,2,4.8,3.4,7.7,4c2.9,0.6,11.3,0.9,25.1,0.9c12.5,0.1,25-0.8,37.3-2.6v19.1c-12.9,4.4-33.7,6.6-62.3,6.6
		c-15.8,0-26.6-4.8-32.5-14.3c-5.9-9.5-8.8-26.1-8.9-49.8C1298,867.1,1301.1,851,1307.2,842.7z M1376.7,871.5
		c0-9.4-1.3-15.4-3.9-17.9s-8.8-3.8-18.5-3.8c-12.4,0-19.9,1.4-22.4,4.2c-3.2,3.5-5.2,7.9-5.7,12.6c-0.5,4.8-0.7,9.8-0.7,15h39.2
		C1372.6,881.7,1376.7,878.3,1376.7,871.5z"/>
	<path class="st0" d="M1463.1,835.6c3.9-2.4,8.1-4.4,12.5-5.9c5.6-2,11.5-2.9,17.5-2.8c6.5,0,10.9,0.6,13.5,1.7v26.7
		c-6-0.7-11.9-1.1-17.9-1c-7.9,0-14.6,1-20.1,3c-5.5,2-11.2,5.6-17,11v85.5h-27.4V828.3h22.2l5.2,15.8
		C1456.1,840.5,1459.9,837.7,1463.1,835.6z"/>
	<path class="st0" d="M1523.3,833.7c15.1-5.2,34.9-7.8,59.3-7.8c27.6,0,41.3,12.9,41.3,38.7v89h-21.2l-6.1-14.4
		c-0.5,0.9-2.8,2.6-7,5c-5.3,2.9-10.9,5.3-16.6,7.2c-6.1,2.3-12.6,3.5-19.1,3.7c-10.7,0-19.1-3.1-25.3-9.4
		c-6.1-6.1-9.4-14.5-9.2-23.1v-12.7c0-9.8,2.9-17.8,8.7-24c5.8-6.2,15.2-9.3,28-9.3h40.5c0.2-3.6,0.2-6.3,0.2-8.2
		c0-1.8-0.1-2.7-0.2-2.7c0-6.5-1.5-10.9-4.4-13.2c-2.9-2.4-7.4-3.5-13.3-3.5c-11.7,0-30.1,0.9-55.5,2.6L1523.3,833.7z M1546.7,919.2
		c0,4.9,1.1,8.2,3.3,9.9c2.2,1.7,5.4,2.6,9.7,2.6c5.3-0.2,10.6-1,15.7-2.6c5.2-1.4,10.3-3.1,15.2-5.2l5.9-2.6v-26.9l-38.3,2.8
		c-7.7,0.8-11.6,5.4-11.6,13.7L1546.7,919.2z"/>
	<path class="st0" d="M1686.4,793.1v34.9h31.2v22.5h-31.2v55c0,8.8,1,15,2.9,18.5c1.9,3.5,5.1,6.1,8.9,7.2c10.7,3.3,16.6,5,17.7,5
		v17.5h-26c-20.6,0-30.9-15-30.9-44.9v-58.3h-21.2V834l21.2-5.9l5.2-34.9H1686.4z"/>
	<path class="st0" d="M1745.7,940.5c-4.6-5.5-7.9-12.1-9.4-19.1c-1.9-7.6-2.8-18.6-2.8-32.9c0-14.3,1.8-26.2,5.5-35.7
		c3.7-9.4,9.5-16.1,17.5-19.9c7.9-3.9,19.2-5.8,33.6-5.8c21.4,0,36.2,4.7,44.3,14.2c8.1,9.4,12.2,26.2,12.1,50.4
		c0,24.2-4,40.7-12.1,49.7c-8.1,9-22.8,13.5-44.3,13.5c-10.9,0-19.9-1.1-27-3.3C1756.3,949.6,1750.3,945.8,1745.7,940.5z
		 M1763.5,864.5c-1.1,3.8-1.8,7.6-2.1,11.6c-0.4,4.5-0.6,9.9-0.6,16.2c0,5.3,0.2,10.6,0.7,15.8c0.3,3.6,1.2,7.2,2.5,10.6
		c1,2.5,2.3,4.8,3.9,6.8c1.5,1.8,3.5,3.2,5.7,4c4.8,1.4,9.8,2,14.8,1.9c4.3,0.1,8.6-0.1,12.9-0.6c2.8-0.4,5.5-1.3,8-2.6
		c2.7-1.3,4.7-3.5,5.9-6.3c2.7-6.3,4-14.4,4-24.3c0-9.9-0.2-17.1-0.6-21.6c-0.3-3.9-1-7.8-2.1-11.6c-0.8-2.7-1.9-5.2-3.4-7.6
		c-1.4-1.9-3.3-3.3-5.4-4.1c-3.8-1.6-8.7-2.4-14.6-2.5c-4.3-0.1-8.5,0-12.7,0.4c-2.6,0.3-5.1,1-7.4,2c-2.2,0.9-4.2,2.3-5.7,4.2
		C1765.5,859.3,1764.3,861.9,1763.5,864.5L1763.5,864.5z"/>
	<path class="st0" d="M1907.4,835.6c3.9-2.4,8.1-4.4,12.5-5.9c5.6-2,11.5-2.9,17.5-2.8c6.5,0,10.9,0.6,13.5,1.7v26.7
		c-6-0.7-11.9-1.1-17.9-1c-7.9,0-14.6,1-20.1,3c-5.5,2-11.2,5.6-17,11v85.5h-27.4V828.3h22.3l5.2,15.8
		C1900.4,840.5,1904.3,837.7,1907.4,835.6z"/>
</g>
</svg>
