<?xml version="1.0" standalone="no"?>
<!DOCTYPE svg PUBLIC "-//W3C//DTD SVG 20010904//EN"
 "http://www.w3.org/TR/2001/REC-SVG-20010904/DTD/svg10.dtd">
<svg version="1.0" xmlns="http://www.w3.org/2000/svg"
 width="200.000000pt" height="200.000000pt" viewBox="0 0 200.000000 200.000000"
 preserveAspectRatio="xMidYMid meet">

<g transform="translate(0.000000,200.000000) scale(0.100000,-0.100000)"
fill="#000000" stroke="none">
<path d="M0 1000 l0 -1000 1000 0 1000 0 0 1000 0 1000 -1000 0 -1000 0 0
-1000z m679 704 c11 -94 18 -118 57 -195 24 -49 44 -90 44 -93 0 -2 -15 -7
-34 -10 -39 -7 -40 -12 -52 -129 l-6 -68 138 3 139 3 3 298 2 297 139 0 139 0
5 -42 c4 -24 9 -70 13 -103 5 -41 20 -87 50 -147 24 -48 44 -92 44 -97 0 -6
-15 -13 -34 -16 -37 -7 -34 2 -51 -142 l-7 -53 140 0 140 0 5 -32 c3 -18 9
-64 13 -103 5 -54 17 -90 50 -157 24 -48 44 -92 44 -97 0 -6 -15 -13 -34 -17
-34 -6 -35 -6 -41 -72 -3 -37 -9 -79 -11 -95 l-6 -27 -149 0 -149 0 0 300 0
300 -150 0 c-113 0 -150 -3 -150 -12 0 -7 5 -53 11 -103 8 -73 19 -108 55
-182 24 -51 44 -94 44 -97 0 -3 -15 -8 -34 -12 -38 -7 -37 -5 -52 -136 l-6
-58 -154 0 -154 0 0 300 0 300 -150 0 -150 0 0 300 0 300 144 0 143 0 12 -106z
m-180 -1257 c15 -19 4 -27 -30 -20 -35 7 -59 -11 -59 -42 0 -32 24 -49 60 -42
35 7 49 -8 21 -22 -32 -17 -60 -13 -86 14 -31 30 -32 71 -3 102 24 26 79 31
97 10z m141 -2 c0 -11 -11 -15 -40 -15 -54 0 -56 -27 -2 -32 20 -2 37 -7 37
-13 0 -5 -17 -11 -37 -13 -55 -5 -52 -32 3 -32 61 0 45 -24 -19 -28 l-52 -3 0
75 0 76 55 0 c42 0 55 -3 55 -15z m136 -10 c15 -23 15 -27 -1 -51 -15 -23 -15
-27 -1 -43 35 -38 2 -44 -34 -6 -13 14 -29 25 -37 25 -7 0 -13 -11 -13 -25 0
-26 -15 -35 -22 -12 -2 6 -3 30 -2 52 3 90 0 85 49 85 36 0 47 -4 61 -25z
m144 10 c0 -11 -11 -15 -41 -15 -33 0 -40 -3 -37 -17 2 -12 14 -19 36 -21 42
-4 41 -20 0 -24 -28 -2 -34 -8 -36 -31 -2 -16 -8 -27 -15 -24 -12 4 -22 109
-13 133 8 21 106 19 106 -1z m121 5 c23 -13 26 -68 4 -76 -13 -5 -12 -11 6
-35 26 -37 3 -40 -31 -4 -30 32 -50 32 -50 -1 0 -16 -5 -24 -12 -22 -9 3 -14
30 -16 76 l-3 72 41 0 c23 0 50 -5 61 -10z m158 -58 c17 -38 31 -72 31 -75 0
-14 -28 -7 -34 8 -3 10 -19 15 -45 15 -25 0 -41 -5 -45 -15 -6 -16 -26 -21
-26 -6 0 24 61 141 73 141 8 0 28 -31 46 -68z m98 28 c29 -41 41 -49 40 -27
-1 38 4 67 13 67 6 0 10 -32 10 -77 l-1 -78 -44 50 -45 50 0 -48 c0 -34 -4
-47 -12 -45 -9 3 -14 30 -16 76 -3 86 11 94 55 32z m203 30 c22 -14 4 -25 -35
-21 -29 2 -37 -2 -46 -22 -18 -39 4 -69 46 -66 39 4 57 -8 35 -21 -49 -31
-114 6 -114 65 0 59 65 96 114 65z m140 -5 c0 -11 -11 -15 -40 -15 -29 0 -40
-4 -40 -15 0 -11 11 -15 40 -15 29 0 40 -4 40 -15 0 -11 -11 -15 -40 -15 -29
0 -40 -4 -40 -15 0 -11 11 -15 40 -15 29 0 40 -4 40 -16 0 -12 -10 -14 -52
-12 l-53 3 -3 59 c-2 32 -1 65 2 72 8 21 106 19 106 -1z m-545 -155 c-3 -5 -1
-10 4 -10 22 0 10 -20 -11 -21 l-23 -2 23 -4 c12 -2 22 -9 22 -14 0 -5 -10 -9
-22 -10 l-23 0 23 -9 c30 -13 28 -20 -8 -20 -28 0 -30 2 -30 40 0 29 4 40 15
40 8 0 15 5 15 10 0 6 5 10 11 10 5 0 7 -4 4 -10z m-370 -50 c0 -32 -3 -35
-29 -35 -23 0 -30 5 -33 25 -6 38 4 52 34 48 25 -3 28 -7 28 -38z m93 27 c6
-7 7 -18 2 -26 -4 -8 -5 -21 -2 -30 5 -14 4 -14 -13 -1 -14 11 -19 12 -22 3
-10 -27 -23 -11 -23 27 0 35 3 40 24 40 13 0 28 -6 34 -13z m106 -9 c15 -25
-3 -52 -37 -56 -21 -3 -28 2 -33 22 -12 49 43 76 70 34z m86 12 c0 -5 -9 -10
-19 -10 -11 0 -23 -5 -26 -10 -9 -15 14 -40 31 -33 8 3 14 0 14 -7 0 -6 -11
-10 -27 -8 -48 5 -40 78 8 78 11 0 19 -4 19 -10z m150 -20 c0 -19 5 -30 14
-30 8 0 18 -4 21 -10 4 -6 -7 -10 -24 -10 -29 0 -31 2 -31 40 0 22 5 40 10 40
6 0 10 -13 10 -30z m90 -10 c0 -22 -4 -40 -10 -40 -5 0 -10 18 -10 40 0 22 5
40 10 40 6 0 10 -18 10 -40z m99 3 l19 -38 -43 0 -43 0 19 38 c11 20 21 37 24
37 3 0 13 -17 24 -37z m72 15 l18 -23 1 23 c0 12 5 22 10 22 6 0 10 -18 10
-40 0 -45 -10 -51 -33 -17 l-16 22 0 -22 c-1 -41 -21 -24 -21 17 0 46 5 49 31
18z m133 0 c15 -25 -3 -52 -38 -56 -24 -3 -26 -1 -26 38 0 39 2 41 26 38 15
-2 32 -11 38 -20z m86 12 c0 -5 -10 -11 -22 -11 l-23 -2 23 -4 c12 -2 22 -9
22 -14 0 -5 -10 -10 -22 -10 l-23 -2 23 -4 c32 -6 27 -23 -8 -23 -28 0 -30 2
-30 40 0 38 2 40 30 40 17 0 30 -4 30 -10z"/>
<path d="M690 410 c0 -18 5 -21 33 -18 20 2 32 8 32 18 0 10 -12 16 -32 18
-28 3 -33 0 -33 -18z"/>
<path d="M970 410 c0 -16 7 -20 30 -20 23 0 30 4 30 20 0 16 -7 20 -30 20 -23
0 -30 -4 -30 -20z"/>
<path d="M1142 395 c-11 -23 -10 -25 14 -25 22 0 24 2 13 23 -6 12 -13 23 -14
25 -1 1 -7 -9 -13 -23z"/>
<path d="M688 253 c7 -3 16 -2 19 1 4 3 -2 6 -13 5 -11 0 -14 -3 -6 -6z"/>
<path d="M688 223 c7 -3 16 -2 19 1 4 3 -2 6 -13 5 -11 0 -14 -3 -6 -6z"/>
<path d="M780 250 c0 -5 7 -10 15 -10 8 0 15 5 15 10 0 6 -7 10 -15 10 -8 0
-15 -4 -15 -10z"/>
<path d="M872 238 c2 -13 10 -23 18 -23 8 0 16 10 18 23 3 17 -2 22 -18 22
-16 0 -21 -5 -18 -22z"/>
<path d="M1315 240 c-3 -5 -1 -10 4 -10 6 0 11 5 11 10 0 6 -2 10 -4 10 -3 0
-8 -4 -11 -10z"/>
<path d="M1510 240 c0 -11 7 -20 15 -20 8 0 15 9 15 20 0 11 -7 20 -15 20 -8
0 -15 -9 -15 -20z"/>
</g>
</svg>
