<?xml version="1.0" standalone="no"?>
<!DOCTYPE svg PUBLIC "-//W3C//DTD SVG 20010904//EN"
 "http://www.w3.org/TR/2001/REC-SVG-20010904/DTD/svg10.dtd">
<svg version="1.0" xmlns="http://www.w3.org/2000/svg"
 width="153.000000pt" height="40.000000pt" viewBox="0 0 153.000000 40.000000"
 preserveAspectRatio="xMidYMid meet">

<g transform="translate(0.000000,40.000000) scale(0.100000,-0.100000)"
fill="#000000" stroke="none">
<path d="M830 325 c0 -24 -5 -35 -15 -35 -8 0 -15 9 -15 20 0 11 -4 20 -10 20
-6 0 -10 -28 -10 -65 0 -37 4 -65 10 -65 6 0 10 14 10 30 0 20 5 30 15 30 10
0 15 -10 15 -30 0 -16 5 -30 10 -30 6 0 10 33 10 80 0 47 -4 80 -10 80 -5 0
-10 -16 -10 -35z"/>
<path d="M880 320 c0 -5 7 -10 15 -10 8 0 15 5 15 10 0 6 -7 10 -15 10 -8 0
-15 -4 -15 -10z"/>
<path d="M230 255 c0 -19 5 -35 10 -35 6 0 10 7 10 15 0 21 18 19 23 -2 3 -11
5 -6 6 11 1 21 -3 27 -14 22 -9 -3 -15 0 -15 9 0 8 -4 15 -10 15 -5 0 -10 -16
-10 -35z"/>
<path d="M459 273 c-1 -10 -1 -24 0 -30 1 -7 -5 -13 -14 -13 -12 0 -15 6 -10
21 5 15 4 19 -4 15 -6 -4 -11 -16 -11 -27 0 -14 7 -19 25 -19 22 0 25 4 25 35
0 36 -9 50 -11 18z"/>
<path d="M720 209 c0 -91 17 -138 55 -159 34 -18 84 -15 114 8 25 18 80 114
81 140 0 28 -21 9 -41 -38 -40 -92 -106 -124 -154 -75 -23 22 -25 32 -25 115
0 73 -3 90 -15 90 -12 0 -15 -16 -15 -81z"/>
<path d="M882 235 c2 -30 8 -55 13 -55 6 0 11 25 13 55 2 45 0 55 -13 55 -13
0 -15 -10 -13 -55z"/>
<path d="M1012 255 c0 -22 2 -32 5 -22 2 9 11 17 18 17 7 0 16 -8 19 -17 3
-11 4 -7 3 7 -1 17 -7 24 -19 22 -9 -1 -19 5 -21 15 -3 10 -5 0 -5 -22z"/>
<path d="M1406 272 c-6 -10 4 -52 13 -52 8 0 7 47 -1 56 -3 3 -8 1 -12 -4z"/>
<path d="M311 262 c9 -4 15 -15 13 -24 -1 -10 2 -18 8 -18 19 0 3 45 -17 47
-16 2 -17 1 -4 -5z"/>
<path d="M361 240 l0 -25 11 25 11 25 7 -25 8 -25 1 27 c1 21 -3 26 -19 25
-15 -1 -20 -8 -19 -27z"/>
<path d="M517 263 c-4 -3 -7 -15 -7 -25 0 -12 7 -18 23 -17 16 1 18 2 5 6 -21
5 -23 14 -6 31 7 7 8 12 2 12 -6 0 -14 -3 -17 -7z"/>
<path d="M578 264 c6 -3 12 -14 12 -25 0 -10 5 -19 11 -19 20 0 5 45 -16 47
-11 2 -14 0 -7 -3z"/>
<path d="M621 226 c1 -22 3 -33 6 -23 2 9 13 17 24 17 30 0 22 45 -8 46 -21 1
-23 -3 -22 -40z m39 13 c0 -5 -7 -9 -15 -9 -15 0 -20 12 -9 23 8 8 24 -1 24
-14z"/>
<path d="M1141 240 c1 -17 3 -19 6 -7 2 9 11 17 18 17 7 0 16 -8 18 -17 4 -17
5 -17 6 0 0 9 7 17 15 17 8 0 17 -8 20 -17 3 -11 4 -7 3 7 -2 22 -6 25 -44 25
-39 0 -43 -2 -42 -25z"/>
<path d="M1269 252 c6 -10 7 -22 4 -26 -3 -3 -1 -6 6 -6 16 0 10 42 -7 48 -11
3 -12 0 -3 -16z"/>
<path d="M1323 263 c-7 -2 -12 -14 -12 -26 1 -17 2 -18 6 -4 2 9 8 17 13 17 5
0 11 -8 13 -17 3 -11 5 -7 6 10 1 27 -3 30 -26 20z"/>
<path d="M1484 255 c-4 -11 -10 -12 -18 -6 -9 8 -11 1 -8 -25 2 -19 6 -33 8
-31 8 8 34 77 29 77 -3 0 -8 -7 -11 -15z"/>
<path d="M482 240 c0 -14 2 -19 5 -12 2 6 2 18 0 25 -3 6 -5 1 -5 -13z"/>
<path d="M1081 243 c-1 -17 5 -23 19 -23 14 0 20 6 19 23 -1 16 -2 18 -6 5 -2
-10 -8 -18 -13 -18 -5 0 -11 8 -13 18 -4 13 -5 11 -6 -5z"/>
<path d="M1372 240 c0 -14 2 -19 5 -12 2 6 2 18 0 25 -3 6 -5 1 -5 -13z"/>
<path d="M1240 230 c0 -5 5 -10 10 -10 6 0 10 5 10 10 0 6 -4 10 -10 10 -5 0
-10 -4 -10 -10z"/>
<path d="M1015 188 c-3 -7 -6 -24 -7 -38 -2 -19 2 -26 20 -28 15 -2 22 2 22
12 0 9 -5 16 -11 16 -6 0 -8 8 -4 19 7 22 -12 40 -20 19z m15 -48 c0 -5 -4
-10 -10 -10 -5 0 -10 5 -10 10 0 6 5 10 10 10 6 0 10 -4 10 -10z"/>
<path d="M127 178 c-6 -18 10 -58 24 -58 8 0 8 5 -2 16 -10 12 -10 17 0 23 9
6 9 10 -2 20 -11 9 -16 9 -20 -1z"/>
<path d="M663 155 c0 -22 2 -30 4 -17 2 12 2 30 0 40 -3 9 -5 -1 -4 -23z"/>
<path d="M1223 155 c0 -22 2 -30 4 -17 2 12 2 30 0 40 -3 9 -5 -1 -4 -23z"/>
<path d="M403 159 c4 -13 7 -27 7 -31 0 -5 4 -8 8 -8 13 0 6 54 -8 58 -9 3
-11 -2 -7 -19z"/>
<path d="M42 145 c0 -16 2 -22 5 -12 2 9 2 23 0 30 -3 6 -5 -1 -5 -18z"/>
<path d="M61 143 c0 -27 1 -27 9 -5 5 12 14 22 19 22 5 0 12 -10 14 -22 4 -20
4 -19 6 5 1 23 -3 27 -24 27 -21 0 -25 -5 -24 -27z"/>
<path d="M174 156 c-8 -20 3 -36 24 -35 14 0 13 2 -3 9 -19 8 -19 9 3 9 14 1
22 6 20 14 -7 18 -37 21 -44 3z m33 -2 c-3 -3 -12 -4 -19 -1 -8 3 -5 6 6 6 11
1 17 -2 13 -5z"/>
<path d="M231 143 c0 -16 3 -22 6 -13 3 8 10 21 16 28 7 8 5 12 -7 12 -11 0
-16 -8 -15 -27z"/>
<path d="M281 143 c2 -23 2 -24 6 -5 5 27 23 29 23 2 0 -11 4 -20 9 -20 4 0 8
10 7 23 -1 15 -8 23 -23 25 -20 3 -23 -1 -22 -25z"/>
<path d="M355 160 c17 -7 17 -9 3 -9 -25 -1 -23 -31 2 -31 15 0 20 7 20 25 0
19 -5 25 -22 24 -22 0 -22 -1 -3 -9z"/>
<path d="M452 145 c0 -16 2 -22 5 -12 2 9 2 23 0 30 -3 6 -5 -1 -5 -18z"/>
<path d="M474 155 c-4 -9 -2 -21 4 -27 15 -15 44 -1 40 19 -4 23 -36 29 -44 8z
m34 -6 c-2 -6 -8 -10 -13 -10 -5 0 -11 4 -13 10 -2 6 4 11 13 11 9 0 15 -5 13
-11z"/>
<path d="M531 143 c0 -27 1 -27 9 -5 5 12 14 22 19 22 5 0 12 -10 14 -22 4
-20 4 -19 6 5 1 23 -3 27 -24 27 -21 0 -25 -5 -24 -27z"/>
<path d="M614 161 c19 -7 19 -8 -3 -14 -27 -7 -19 -27 10 -27 14 0 19 7 19 25
0 19 -5 25 -22 24 -21 0 -22 -1 -4 -8z"/>
<path d="M1082 145 c0 -16 2 -22 5 -12 2 9 2 23 0 30 -3 6 -5 -1 -5 -18z"/>
<path d="M1101 143 c0 -27 1 -27 9 -5 5 12 14 22 19 22 5 0 12 -10 14 -22 4
-20 4 -19 6 5 1 23 -3 27 -24 27 -21 0 -25 -5 -24 -27z"/>
<path d="M1164 155 c-8 -19 3 -35 24 -35 13 0 13 2 -3 14 -18 13 -18 13 1 24
17 10 18 11 1 12 -10 0 -20 -7 -23 -15z"/>
<path d="M1251 148 c-1 -22 4 -28 19 -28 15 0 20 6 19 28 -2 23 -2 24 -6 5 -2
-13 -8 -23 -13 -23 -5 0 -11 10 -13 23 -4 19 -4 18 -6 -5z"/>
<path d="M1310 155 c0 -8 6 -15 13 -15 8 0 7 -4 -3 -10 -13 -8 -12 -10 3 -10
9 0 17 7 17 15 0 8 -6 15 -12 15 -9 0 -8 4 2 10 13 8 12 10 -2 10 -10 0 -18
-7 -18 -15z"/>
<path d="M1362 145 c0 -16 2 -22 5 -12 2 9 2 23 0 30 -3 6 -5 -1 -5 -18z"/>
<path d="M1388 158 c-8 -21 2 -38 23 -38 14 0 19 7 19 25 0 18 -5 25 -19 25
-10 0 -21 -6 -23 -12z m32 -13 c0 -8 -4 -15 -10 -15 -5 0 -10 7 -10 15 0 8 5
15 10 15 6 0 10 -7 10 -15z"/>
<path d="M1451 143 c2 -23 2 -24 6 -5 5 27 23 29 23 2 0 -11 5 -20 11 -20 21
0 4 45 -18 48 -20 3 -23 -1 -22 -25z"/>
</g>
</svg>
